<svg width="10" height="19" viewBox="0 0 10 19" fill="none" xmlns="http://www.w3.org/2000/svg">
<path d="M9.15584 0.896208C9.37621 1.14998 9.5 1.49411 9.5 1.85294C9.5 2.21177 9.37621 2.55591 9.15584 2.80968L3.33731 9.50817L9.15584 16.2067C9.36996 16.4619 9.48844 16.8037 9.48576 17.1585C9.48308 17.5133 9.35946 17.8527 9.14152 18.1036C8.92358 18.3545 8.62876 18.4969 8.32056 18.4999C8.01236 18.503 7.71544 18.3666 7.49374 18.1201L0.844159 10.4649C0.623794 10.2111 0.5 9.867 0.5 9.50817C0.5 9.14934 0.623794 8.8052 0.844159 8.55144L7.49374 0.896208C7.71417 0.642516 8.0131 0.5 8.32479 0.5C8.63648 0.5 8.93541 0.642516 9.15584 0.896208Z" fill="#FEFEFE"/>
</svg>
