<svg width="20" height="20" viewBox="0 0 20 20" fill="none" xmlns="http://www.w3.org/2000/svg">
<path d="M18.1782 15.2353L14.972 3.26224C14.8867 2.94492 14.6789 2.67447 14.3942 2.51036C14.1096 2.34625 13.7714 2.30191 13.454 2.3871L11.061 3.0299L10.9835 3.05313C10.8681 2.90171 10.7193 2.77892 10.5487 2.6943C10.3782 2.60969 10.1904 2.56552 9.99997 2.56523H7.52171C7.30369 2.56581 7.0898 2.62464 6.90214 2.73561C6.71449 2.62464 6.50059 2.56581 6.28258 2.56523H3.80432C3.47568 2.56523 3.1605 2.69578 2.92812 2.92816C2.69574 3.16054 2.56519 3.47572 2.56519 3.80436V16.1957C2.56519 16.5243 2.69574 16.8395 2.92812 17.0719C3.1605 17.3042 3.47568 17.4348 3.80432 17.4348H6.28258C6.50059 17.4342 6.71449 17.3754 6.90214 17.2644C7.0898 17.3754 7.30369 17.4342 7.52171 17.4348H9.99997C10.3286 17.4348 10.6438 17.3042 10.8762 17.0719C11.1085 16.8395 11.2391 16.5243 11.2391 16.1957V8.48208L13.3921 16.5132C13.4622 16.7778 13.6181 17.0118 13.8353 17.1785C14.0524 17.3453 14.3187 17.4354 14.5925 17.4348C14.6994 17.4329 14.8058 17.42 14.91 17.3961L17.3031 16.7533C17.6204 16.668 17.8909 16.4602 18.055 16.1755C18.2191 15.8909 18.2634 15.5527 18.1782 15.2353ZM13.7716 3.58751L14.2595 5.3765L11.8664 6.0193L11.3785 4.23031L13.7716 3.58751ZM9.99997 3.80436V13.0978H7.52171V3.80436H9.99997ZM6.28258 3.80436V5.66305H3.80432V3.80436H6.28258ZM9.99997 16.1957H7.52171V14.337H9.99997V16.1957ZM16.9856 15.5529L14.5925 16.1957L14.1046 14.3989L16.5054 13.7561L16.9856 15.5529Z" fill="#FEFEFE"/>
</svg>
