<svg width="24" height="24" viewBox="0 0 24 24" fill="none" xmlns="http://www.w3.org/2000/svg">
<path d="M0 4C0 1.79086 1.79086 0 4 0H24V24H4C1.79086 24 0 22.2091 0 20V4Z" fill="#272C38"/>
<path d="M17.0285 11.6624L15.2339 13.457C14.9259 13.765 14.5602 14.0094 14.1578 14.1761C13.7553 14.3428 13.324 14.4286 12.8884 14.4286C12.4528 14.4286 12.0215 14.3428 11.6191 14.1761C11.2166 14.0094 10.851 13.765 10.543 13.457C10.4671 13.3938 10.4051 13.3155 10.3612 13.227C10.3172 13.1385 10.2922 13.0419 10.2877 12.9432C10.2832 12.8445 10.2993 12.7459 10.335 12.6538C10.3707 12.5617 10.4253 12.478 10.4951 12.4082C10.565 12.3383 10.6486 12.2838 10.7407 12.2481C10.8328 12.2124 10.9314 12.1962 11.0301 12.2008C11.1288 12.2053 11.2254 12.2303 11.3139 12.2742C11.4024 12.3182 11.4807 12.3801 11.5439 12.4561C11.901 12.8094 12.3831 13.0076 12.8855 13.0076C13.3878 13.0076 13.8699 12.8094 14.227 12.4561L16.0216 10.6614C16.3774 10.3056 16.5773 9.82309 16.5773 9.31992C16.5773 8.81675 16.3774 8.33419 16.0216 7.9784C15.6658 7.6226 15.1833 7.42272 14.6801 7.42272C14.1769 7.42272 13.6944 7.6226 13.3386 7.9784L12.77 8.55291C12.6364 8.68643 12.4554 8.76144 12.2665 8.76144C12.0777 8.76144 11.8966 8.68643 11.7631 8.55291C11.6296 8.41939 11.5546 8.2383 11.5546 8.04947C11.5546 7.86064 11.6296 7.67955 11.7631 7.54603L12.3376 6.97151C12.9597 6.34946 13.8033 6 14.683 6C15.5628 6 16.4064 6.34946 17.0285 6.97151C17.6505 7.59356 18 8.43724 18 9.31696C18 10.1967 17.6505 11.0403 17.0285 11.6624ZM11.23 15.4471L10.6614 16.0216C10.3056 16.3774 9.82309 16.5773 9.31992 16.5773C8.81675 16.5773 8.33419 16.3774 7.9784 16.0216C7.6226 15.6658 7.42272 15.1833 7.42272 14.6801C7.42272 14.1769 7.6226 13.6944 7.9784 13.3386L9.77301 11.5439C10.1301 11.1906 10.6122 10.9924 11.1145 10.9924C11.6169 10.9924 12.099 11.1906 12.4561 11.5439C12.5923 11.6574 12.7661 11.7158 12.9432 11.7077C13.1203 11.6996 13.288 11.6256 13.4133 11.5002C13.5387 11.3749 13.6127 11.2072 13.6208 11.0301C13.6288 10.853 13.5704 10.6792 13.457 10.543C13.1494 10.2342 12.7839 9.98928 12.3814 9.82213C11.9789 9.65498 11.5474 9.56894 11.1116 9.56894C10.6758 9.56894 10.2442 9.65498 9.84175 9.82213C9.43926 9.98928 9.07373 10.2342 8.76613 10.543L6.97151 12.3376C6.34946 12.9597 6 13.8033 6 14.683C6 15.5628 6.34946 16.4064 6.97151 17.0285C7.59356 17.6505 8.43724 18 9.31696 18C10.1967 18 11.0403 17.6505 11.6624 17.0285L12.2369 16.454C12.3704 16.3204 12.4454 16.1394 12.4454 15.9505C12.4454 15.7617 12.3704 15.5806 12.2369 15.4471C12.1034 15.3136 11.9223 15.2386 11.7335 15.2386C11.5446 15.2386 11.3636 15.3136 11.23 15.4471Z" fill="#4B7FD6"/>
</svg>
