<svg width="20" height="21" viewBox="0 0 20 21" fill="none" xmlns="http://www.w3.org/2000/svg">
<path d="M18.1782 15.7353L14.972 3.76224C14.8867 3.44492 14.6789 3.17447 14.3942 3.01036C14.1096 2.84625 13.7714 2.80191 13.454 2.8871L11.061 3.5299L10.9835 3.55313C10.8681 3.40171 10.7193 3.27892 10.5487 3.1943C10.3782 3.10969 10.1904 3.06552 9.99997 3.06523H7.52171C7.30369 3.06581 7.0898 3.12464 6.90214 3.23561C6.71449 3.12464 6.50059 3.06581 6.28258 3.06523H3.80432C3.47568 3.06523 3.1605 3.19578 2.92812 3.42816C2.69574 3.66054 2.56519 3.97572 2.56519 4.30436V16.6957C2.56519 17.0243 2.69574 17.3395 2.92812 17.5719C3.1605 17.8042 3.47568 17.9348 3.80432 17.9348H6.28258C6.50059 17.9342 6.71449 17.8754 6.90214 17.7644C7.0898 17.8754 7.30369 17.9342 7.52171 17.9348H9.99997C10.3286 17.9348 10.6438 17.8042 10.8762 17.5719C11.1085 17.3395 11.2391 17.0243 11.2391 16.6957V8.98208L13.3921 17.0132C13.4622 17.2778 13.6181 17.5118 13.8353 17.6785C14.0524 17.8453 14.3187 17.9354 14.5925 17.9348C14.6994 17.9329 14.8058 17.92 14.91 17.8961L17.3031 17.2533C17.6204 17.168 17.8909 16.9602 18.055 16.6755C18.2191 16.3909 18.2634 16.0527 18.1782 15.7353ZM13.7716 4.08751L14.2595 5.8765L11.8664 6.5193L11.3785 4.73031L13.7716 4.08751ZM9.99997 4.30436V13.5978H7.52171V4.30436H9.99997ZM6.28258 4.30436V6.16305H3.80432V4.30436H6.28258ZM9.99997 16.6957H7.52171V14.837H9.99997V16.6957ZM16.9856 16.0529L14.5925 16.6957L14.1046 14.8989L16.5054 14.2561L16.9856 16.0529Z" fill="#FEFEFE"/>
</svg>
