<svg width="25" height="24" viewBox="0 0 25 24" fill="none" xmlns="http://www.w3.org/2000/svg">
<g clip-path="url(#clip0_843_2947)">
<path d="M10.8824 5.125C10.1335 5.125 9.41533 5.41473 8.88582 5.93046C8.3563 6.44618 8.05882 7.14565 8.05882 7.875C8.05882 8.60435 8.3563 9.30382 8.88582 9.81954C9.41533 10.3353 10.1335 10.625 10.8824 10.625C11.6312 10.625 12.3494 10.3353 12.8789 9.81954C13.4084 9.30382 13.7059 8.60435 13.7059 7.875C13.7059 7.14565 13.4084 6.44618 12.8789 5.93046C12.3494 5.41473 11.6312 5.125 10.8824 5.125ZM9.47059 7.875C9.47059 7.51033 9.61933 7.16059 9.88408 6.90273C10.1488 6.64487 10.5079 6.5 10.8824 6.5C11.2568 6.5 11.6159 6.64487 11.8806 6.90273C12.1454 7.16059 12.2941 7.51033 12.2941 7.875C12.2941 8.23967 12.1454 8.58941 11.8806 8.84727C11.6159 9.10513 11.2568 9.25 10.8824 9.25C10.5079 9.25 10.1488 9.10513 9.88408 8.84727C9.61933 8.58941 9.47059 8.23967 9.47059 7.875ZM1 3.0625C1 2.51549 1.22311 1.99089 1.62024 1.60409C2.01738 1.2173 2.55601 1 3.11765 1H18.6471C19.2087 1 19.7473 1.2173 20.1445 1.60409C20.5416 1.99089 20.7647 2.51549 20.7647 3.0625V7.875H19.3529V6.5H17.9412C17.1923 6.5 16.4742 6.21027 15.9446 5.69454C15.4151 5.17882 15.1176 4.47935 15.1176 3.75V2.375H6.64706V3.75C6.64706 4.47935 6.34958 5.17882 5.82007 5.69454C5.29055 6.21027 4.57238 6.5 3.82353 6.5H2.41176V9.25H3.82353C4.57238 9.25 5.29055 9.53973 5.82007 10.0555C6.34958 10.5712 6.64706 11.2707 6.64706 12V13.375H13.7059V14.75H3.11765C2.55601 14.75 2.01738 14.5327 1.62024 14.1459C1.22311 13.7591 1 13.2345 1 12.6875V3.0625ZM3.11765 2.375C2.93044 2.375 2.75089 2.44743 2.61851 2.57636C2.48613 2.7053 2.41176 2.88016 2.41176 3.0625V5.125H3.82353C4.19795 5.125 4.55704 4.98013 4.8218 4.72227C5.08656 4.46441 5.23529 4.11467 5.23529 3.75V2.375H3.11765ZM18.6471 2.375H16.5294V3.75C16.5294 4.11467 16.6782 4.46441 16.9429 4.72227C17.2077 4.98013 17.5668 5.125 17.9412 5.125H19.3529V3.0625C19.3529 2.88016 19.2786 2.7053 19.1462 2.57636C19.0138 2.44743 18.8343 2.375 18.6471 2.375ZM3.11765 13.375H5.23529V12C5.23529 11.6353 5.08656 11.2856 4.8218 11.0277C4.55704 10.7699 4.19795 10.625 3.82353 10.625H2.41176V12.6875C2.41176 12.8698 2.48613 13.0447 2.61851 13.1736C2.75089 13.3026 2.93044 13.375 3.11765 13.375ZM22.1765 7.875V3.86688C22.5895 4.00911 22.9471 4.27261 23.2 4.62108C23.4528 4.96954 23.5885 5.3858 23.5882 5.8125V7.875H22.1765ZM13.7059 16.125V17.5H5.94118C5.50307 17.5002 5.07567 17.3681 4.7179 17.1218C4.36012 16.8756 4.08957 16.5273 3.94353 16.125H13.7059ZM17.2353 9.25C16.6737 9.25 16.135 9.4673 15.7379 9.85409C15.3408 10.2409 15.1176 10.7655 15.1176 11.3125V20.9375C15.1176 21.4845 15.3408 22.0091 15.7379 22.3959C16.135 22.7827 16.6737 23 17.2353 23H22.8824C23.444 23 23.9826 22.7827 24.3798 22.3959C24.7769 22.0091 25 21.4845 25 20.9375V11.3125C25 10.7655 24.7769 10.2409 24.3798 9.85409C23.9826 9.4673 23.444 9.25 22.8824 9.25H17.2353ZM17.2353 14.75H18.6471C18.8343 14.75 19.0138 14.8224 19.1462 14.9514C19.2786 15.0803 19.3529 15.2552 19.3529 15.4375C19.3529 15.6198 19.2786 15.7947 19.1462 15.9236C19.0138 16.0526 18.8343 16.125 18.6471 16.125H17.2353C17.0481 16.125 16.8685 16.0526 16.7362 15.9236C16.6038 15.7947 16.5294 15.6198 16.5294 15.4375C16.5294 15.2552 16.6038 15.0803 16.7362 14.9514C16.8685 14.8224 17.0481 14.75 17.2353 14.75ZM21.4706 14.75H22.8824C23.0696 14.75 23.2491 14.8224 23.3815 14.9514C23.5139 15.0803 23.5882 15.2552 23.5882 15.4375C23.5882 15.6198 23.5139 15.7947 23.3815 15.9236C23.2491 16.0526 23.0696 16.125 22.8824 16.125H21.4706C21.2834 16.125 21.1038 16.0526 20.9715 15.9236C20.8391 15.7947 20.7647 15.6198 20.7647 15.4375C20.7647 15.2552 20.8391 15.0803 20.9715 14.9514C21.1038 14.8224 21.2834 14.75 21.4706 14.75ZM17.2353 17.5H18.6471C18.8343 17.5 19.0138 17.5724 19.1462 17.7014C19.2786 17.8303 19.3529 18.0052 19.3529 18.1875C19.3529 18.3698 19.2786 18.5447 19.1462 18.6736C19.0138 18.8026 18.8343 18.875 18.6471 18.875H17.2353C17.0481 18.875 16.8685 18.8026 16.7362 18.6736C16.6038 18.5447 16.5294 18.3698 16.5294 18.1875C16.5294 18.0052 16.6038 17.8303 16.7362 17.7014C16.8685 17.5724 17.0481 17.5 17.2353 17.5ZM21.4706 17.5H22.8824C23.0696 17.5 23.2491 17.5724 23.3815 17.7014C23.5139 17.8303 23.5882 18.0052 23.5882 18.1875C23.5882 18.3698 23.5139 18.5447 23.3815 18.6736C23.2491 18.8026 23.0696 18.875 22.8824 18.875H21.4706C21.2834 18.875 21.1038 18.8026 20.9715 18.6736C20.8391 18.5447 20.7647 18.3698 20.7647 18.1875C20.7647 18.0052 20.8391 17.8303 20.9715 17.7014C21.1038 17.5724 21.2834 17.5 21.4706 17.5ZM17.2353 20.25H18.6471C18.8343 20.25 19.0138 20.3224 19.1462 20.4514C19.2786 20.5803 19.3529 20.7552 19.3529 20.9375C19.3529 21.1198 19.2786 21.2947 19.1462 21.4236C19.0138 21.5526 18.8343 21.625 18.6471 21.625H17.2353C17.0481 21.625 16.8685 21.5526 16.7362 21.4236C16.6038 21.2947 16.5294 21.1198 16.5294 20.9375C16.5294 20.7552 16.6038 20.5803 16.7362 20.4514C16.8685 20.3224 17.0481 20.25 17.2353 20.25ZM21.4706 20.25H22.8824C23.0696 20.25 23.2491 20.3224 23.3815 20.4514C23.5139 20.5803 23.5882 20.7552 23.5882 20.9375C23.5882 21.1198 23.5139 21.2947 23.3815 21.4236C23.2491 21.5526 23.0696 21.625 22.8824 21.625H21.4706C21.2834 21.625 21.1038 21.5526 20.9715 21.4236C20.8391 21.2947 20.7647 21.1198 20.7647 20.9375C20.7647 20.7552 20.8391 20.5803 20.9715 20.4514C21.1038 20.3224 21.2834 20.25 21.4706 20.25ZM16.5294 11.3125C16.5294 11.1302 16.6038 10.9553 16.7362 10.8264C16.8685 10.6974 17.0481 10.625 17.2353 10.625H22.8824C23.0696 10.625 23.2491 10.6974 23.3815 10.8264C23.5139 10.9553 23.5882 11.1302 23.5882 11.3125V12.6875C23.5882 12.8698 23.5139 13.0447 23.3815 13.1736C23.2491 13.3026 23.0696 13.375 22.8824 13.375H17.2353C17.0481 13.375 16.8685 13.3026 16.7362 13.1736C16.6038 13.0447 16.5294 12.8698 16.5294 12.6875V11.3125Z" fill="#FEFEFE"/>
</g>
<defs>
<clipPath id="clip0_843_2947">
<rect width="24" height="24" fill="white" transform="translate(0.5)"/>
</clipPath>
</defs>
</svg>
