<svg width="24" height="24" viewBox="0 0 24 24" fill="none" xmlns="http://www.w3.org/2000/svg">
<path d="M15.81 20.1805C15.55 20.1805 15.28 20.1705 14.99 20.1405C14.47 20.1005 13.88 20.0005 13.27 19.8505L11.59 19.4505C6.98001 18.3605 5.47001 15.9205 6.55001 11.3205L7.53001 7.1305C7.75001 6.1805 8.01001 5.4105 8.33001 4.7705C10.05 1.2205 13.34 1.5405 15.68 2.0905L17.35 2.4805C19.69 3.0305 21.17 3.9005 22 5.2305C22.82 6.5605 22.95 8.2705 22.4 10.6105L21.42 14.7905C20.56 18.4505 18.77 20.1805 15.81 20.1805ZM13.12 3.2505C11.45 3.2505 10.39 3.9405 9.68001 5.4205C9.42001 5.9605 9.19001 6.6305 8.99001 7.4705L8.01001 11.6605C7.12001 15.4405 8.15001 17.0905 11.93 17.9905L13.61 18.3905C14.15 18.5205 14.66 18.6005 15.12 18.6405C17.84 18.9105 19.19 17.7205 19.95 14.4505L20.93 10.2705C21.38 8.3405 21.32 6.9905 20.72 6.0205C20.12 5.0505 18.94 4.3905 17 3.9405L15.33 3.5505C14.5 3.3505 13.76 3.2505 13.12 3.2505Z" fill="#FEFEFE"/>
<path d="M8.32999 22.2497C5.75999 22.2497 4.11999 20.7097 3.06999 17.4597L1.78999 13.5097C0.369991 9.10968 1.63999 6.62968 6.01999 5.20968L7.59999 4.69968C8.11999 4.53968 8.50999 4.42968 8.85999 4.36968C9.14999 4.30968 9.42999 4.41968 9.59999 4.64968C9.76999 4.87968 9.79999 5.17968 9.67999 5.43968C9.41999 5.96968 9.18999 6.63968 8.99999 7.47968L8.01999 11.6697C7.12999 15.4497 8.15999 17.0997 11.94 17.9997L13.62 18.3997C14.16 18.5297 14.67 18.6097 15.13 18.6497C15.45 18.6797 15.71 18.8997 15.8 19.2097C15.88 19.5197 15.76 19.8397 15.5 20.0197C14.84 20.4697 14.01 20.8497 12.96 21.1897L11.38 21.7097C10.23 22.0697 9.22999 22.2497 8.32999 22.2497ZM7.77999 6.21968L6.48999 6.63968C2.91999 7.78968 2.06999 9.46968 3.21999 13.0497L4.49999 16.9997C5.65999 20.5697 7.33999 21.4297 10.91 20.2797L12.49 19.7597C12.55 19.7397 12.6 19.7197 12.66 19.6997L11.6 19.4497C6.98999 18.3597 5.47999 15.9197 6.55999 11.3197L7.53999 7.12968C7.60999 6.80968 7.68999 6.49968 7.77999 6.21968Z" fill="#FEFEFE"/>
<path d="M17.49 10.5098C17.43 10.5098 17.37 10.4998 17.3 10.4898L12.45 9.25978C12.05 9.15978 11.81 8.74978 11.91 8.34978C12.01 7.94978 12.42 7.70978 12.82 7.80978L17.67 9.03978C18.07 9.13978 18.31 9.54978 18.21 9.94978C18.13 10.2798 17.82 10.5098 17.49 10.5098Z" fill="#FEFEFE"/>
<path d="M14.56 13.8899C14.5 13.8899 14.44 13.8799 14.37 13.8699L11.46 13.1299C11.06 13.0299 10.82 12.6199 10.92 12.2199C11.02 11.8199 11.43 11.5799 11.83 11.6799L14.74 12.4199C15.14 12.5199 15.38 12.9299 15.28 13.3299C15.2 13.6699 14.9 13.8899 14.56 13.8899Z" fill="#FEFEFE"/>
</svg>
