<svg width="20" height="18" viewBox="0 0 20 18" fill="none" xmlns="http://www.w3.org/2000/svg">
<path d="M9.97418 17.3811C10.3618 16.9006 10.8587 16.2773 11.3943 15.5601V12.2559C11.3943 11.4307 11.8489 10.71 12.522 10.327V9.47045C12.522 7.53458 13.9492 5.92948 15.8204 5.62308C15.3059 2.43725 12.5114 0 9.13901 0C5.40363 0 2.37305 2.99433 2.37305 6.68502C2.37305 9.7281 6.49606 15.1458 8.30384 17.3811C8.73728 17.9138 9.54074 17.9138 9.97418 17.3811ZM9.13901 8.91337C7.89506 8.91337 6.88369 7.91409 6.88369 6.68502C6.88369 5.45596 7.89506 4.45668 9.13901 4.45668C10.383 4.45668 11.3943 5.45596 11.3943 6.68502C11.3943 7.91409 10.383 8.91337 9.13901 8.91337Z" fill="#FEFEFE"/>
<path d="M19.0284 7.56865C19.1878 7.85328 19.288 8.16591 19.3232 8.48851C19.3584 8.81111 19.3279 9.13728 19.2335 9.4482L18.6876 11.2692C18.4993 11.8962 18.064 12.4243 17.4775 12.7373C16.891 13.0504 16.2012 13.123 15.5596 12.939C15.5085 12.927 15.4605 12.9049 15.4183 12.8741C15.3762 12.8434 15.3409 12.8046 15.3145 12.7601C15.2882 12.7156 15.2714 12.6663 15.2651 12.6153C15.2588 12.5643 15.2632 12.5125 15.278 12.4632C15.2927 12.4139 15.3176 12.368 15.3511 12.3284C15.3845 12.2888 15.4259 12.2563 15.4726 12.2328C15.5193 12.2093 15.5705 12.1953 15.6229 12.1917C15.6753 12.1881 15.728 12.195 15.7776 12.2119C16.2219 12.3381 16.6991 12.2874 17.1049 12.0707C17.5108 11.854 17.8124 11.4891 17.9438 11.0555L18.4897 9.2345C18.5598 9.01786 18.585 8.78968 18.5638 8.56333C18.5425 8.33698 18.4753 8.11702 18.3659 7.91636C18.2566 7.71569 18.1075 7.53836 17.9272 7.39476C17.7469 7.25115 17.5391 7.14417 17.3161 7.08008C17.093 7.016 16.8591 6.99609 16.6281 7.02154C16.3972 7.04699 16.1738 7.11728 15.971 7.22829C15.7683 7.3393 15.5903 7.48879 15.4474 7.66799C15.3046 7.8472 15.1998 8.05252 15.1393 8.2719L14.7573 9.54598C14.7246 9.63796 14.657 9.71409 14.5685 9.75863C14.4799 9.80316 14.3772 9.81269 14.2817 9.78522C14.1861 9.75776 14.1049 9.69542 14.055 9.61111C14.0051 9.52679 13.9902 9.42696 14.0135 9.33228L14.3954 8.0582C14.5373 7.59171 14.8169 7.17668 15.1991 6.86518C15.5814 6.55369 16.0494 6.35962 16.5443 6.30732C17.0392 6.25503 17.539 6.34684 17.9809 6.57124C18.4229 6.79564 18.7873 7.14262 19.0284 7.56865ZM17.1259 13.7839L16.7439 15.058C16.6062 15.4835 16.3033 15.8392 15.9004 16.0489C15.4974 16.2586 15.0264 16.3055 14.5882 16.1796C14.15 16.0537 13.7795 15.765 13.5562 15.3754C13.3329 14.9858 13.2745 14.5263 13.3935 14.0954L13.9394 12.2743C14.0708 11.8408 14.3724 11.4758 14.7782 11.2592C15.1841 11.0425 15.6613 10.9917 16.1056 11.118C16.2024 11.1408 16.3045 11.1264 16.3907 11.0776C16.4769 11.0289 16.5406 10.9496 16.5686 10.8561C16.5966 10.7627 16.5868 10.6623 16.5412 10.5757C16.4955 10.489 16.4176 10.4229 16.3235 10.3908C15.682 10.2069 14.9922 10.2794 14.4057 10.5925C13.8191 10.9056 13.3839 11.4336 13.1956 12.0606L12.6497 13.8817C12.544 14.1957 12.5041 14.5273 12.5322 14.8568C12.5603 15.1863 12.6558 15.5069 12.8132 15.7997C12.9705 16.0924 13.1864 16.3513 13.4481 16.5609C13.7097 16.7706 14.0118 16.9266 14.3363 17.0198C14.6608 17.1131 15.0011 17.1415 15.3369 17.1036C15.6728 17.0657 15.9974 16.9621 16.2914 16.799C16.5854 16.6359 16.8428 16.4166 17.0483 16.1543C17.2538 15.8919 17.4033 15.5917 17.4877 15.2717L17.8697 13.9976C17.893 13.9029 17.8781 13.8031 17.8282 13.7187C17.7783 13.6344 17.6971 13.5721 17.6015 13.5446C17.5059 13.5172 17.4033 13.5267 17.3147 13.5712C17.2262 13.6158 17.1586 13.6919 17.1259 13.7839Z" fill="#FEFEFE"/>
</svg>
