<svg width="24" height="24" viewBox="0 0 24 24" fill="none" xmlns="http://www.w3.org/2000/svg">
<path d="M19.444 3.06141H14.6967C14.507 2.47468 14.1449 1.96472 13.6617 1.60345C13.1785 1.24219 12.5984 1.04785 12.0033 1.04785C11.4082 1.04785 10.8282 1.24219 10.3449 1.60345C9.86169 1.96472 9.49966 2.47468 9.30991 3.06141H4.74727C4.5858 3.03712 4.42121 3.04872 4.26437 3.09546C4.10753 3.14219 3.962 3.223 3.83738 3.33254C3.71276 3.44209 3.61189 3.57788 3.54143 3.73096C3.47096 3.88403 3.4325 4.05091 3.42859 4.22059V21.7934C3.42945 21.9465 3.4593 22.098 3.51643 22.2391C3.57356 22.3802 3.65685 22.5083 3.76154 22.6159C3.86624 22.7236 3.99029 22.8087 4.12661 22.8665C4.26294 22.9242 4.40886 22.9535 4.55606 22.9526H19.444C19.5912 22.9535 19.7371 22.9242 19.8734 22.8665C20.0097 22.8087 20.1338 22.7236 20.2385 22.6159C20.3432 22.5083 20.4265 22.3802 20.4836 22.2391C20.5407 22.098 20.5706 21.9465 20.5714 21.7934V4.22059C20.5706 4.06746 20.5407 3.91601 20.4836 3.77488C20.4265 3.63376 20.3432 3.50572 20.2385 3.39808C20.1338 3.29044 20.0097 3.20531 19.8734 3.14754C19.7371 3.08978 19.5912 3.06051 19.444 3.06141ZM7.57584 5.11912C7.57584 4.93721 7.64531 4.76275 7.76896 4.63411C7.89261 4.50548 8.06031 4.43322 8.23518 4.43322H10.5033V4.0011C10.5033 3.57997 10.6641 3.17609 10.9504 2.87831C11.2366 2.58053 11.6249 2.41323 12.0297 2.41323C12.4345 2.41323 12.8227 2.58053 13.109 2.87831C13.3952 3.17609 13.5561 3.57997 13.5561 4.0011V4.46751H15.8242C15.9991 4.46751 16.1668 4.53978 16.2904 4.66841C16.4141 4.79704 16.4835 4.9715 16.4835 5.15342V6.38804H7.54947L7.57584 5.11912ZM17.1495 11.45L11.1363 17.7054L7.68134 14.1113C7.50647 13.9294 7.40823 13.6827 7.40823 13.4254C7.40823 13.1681 7.50647 12.9214 7.68134 12.7395C7.8562 12.5576 8.09338 12.4554 8.34068 12.4554C8.58798 12.4554 8.82515 12.5576 9.00002 12.7395L11.1495 14.9755L15.8572 10.0782C16.032 9.89629 16.2692 9.79409 16.5165 9.79409C16.7638 9.79409 17.001 9.89629 17.1758 10.0782C17.3507 10.2601 17.4489 10.5068 17.4489 10.7641C17.4489 11.0214 17.3507 11.2681 17.1758 11.45H17.1495Z" fill="#FEFEFE"/>
</svg>
